<svg width="44" height="44" viewBox="0 0 44 44" fill="none" xmlns="http://www.w3.org/2000/svg">
<path d="M43.579 22.0007C43.579 32.8235 35.4907 41.7709 24.9832 43.2229C24.0008 43.358 22.9956 43.4286 21.9753 43.4286C20.7975 43.4286 19.641 43.3355 18.5147 43.1553C8.22828 41.5127 0.371552 32.6658 0.371552 22.0007C0.371552 10.166 10.0449 0.571411 21.9768 0.571411C33.9087 0.571411 43.582 10.166 43.582 22.0007H43.579Z" fill="#383D38"/>
<path d="M24.9832 17.7785V22.4467H30.8054L29.8835 28.7349H24.9832V43.2229C24.0008 43.358 22.9956 43.4286 21.9753 43.4286C20.7975 43.4286 19.641 43.3355 18.5147 43.1553V28.7349H13.1452V22.4467H18.5147V16.735C18.5147 13.1915 21.4106 10.3176 24.9848 10.3176V10.3206C24.9954 10.3206 25.0044 10.3176 25.015 10.3176H30.8069V15.756H27.0224C25.8976 15.756 24.9848 16.6614 24.9848 17.777L24.9832 17.7785Z" fill="white"/>
</svg>
