<svg width="44" height="44" viewBox="0 0 44 44" fill="none" xmlns="http://www.w3.org/2000/svg">
<path d="M21.8163 0.571411H21.7179C9.81323 0.571411 0.162598 10.1434 0.162598 21.9512V22.0488C0.162598 33.8565 9.81323 43.4286 21.7179 43.4286H21.8163C33.7209 43.4286 43.3716 33.8565 43.3716 22.0488V21.9512C43.3716 10.1434 33.7209 0.571411 21.8163 0.571411Z" fill="#383D38"/>
<path d="M28.4529 9.29059H15.0828C11.3891 9.29059 8.38416 12.2711 8.38416 15.9347V28.0668C8.38416 31.7304 11.3891 34.7109 15.0828 34.7109H28.4529C32.1466 34.7109 35.1515 31.7304 35.1515 28.0668V15.9347C35.1515 12.2711 32.1466 9.29059 28.4529 9.29059ZM10.7472 15.9347C10.7472 13.5638 12.6925 11.6344 15.0828 11.6344H28.4529C30.8432 11.6344 32.7884 13.5638 32.7884 15.9347V28.0668C32.7884 30.4376 30.8432 32.367 28.4529 32.367H15.0828C12.6925 32.367 10.7472 30.4376 10.7472 28.0668V15.9347Z" fill="white"/>
<path d="M21.7678 28.1794C25.2027 28.1794 27.9987 25.4076 27.9987 21.9992C27.9987 18.5909 25.2042 15.8191 21.7678 15.8191C18.3315 15.8191 15.537 18.5909 15.537 21.9992C15.537 25.4076 18.3315 28.1794 21.7678 28.1794ZM21.7678 18.1644C23.9008 18.1644 25.6357 19.8851 25.6357 22.0008C25.6357 24.1164 23.9008 25.8371 21.7678 25.8371C19.6349 25.8371 17.9 24.1164 17.9 22.0008C17.9 19.8851 19.6349 18.1644 21.7678 18.1644Z" fill="white"/>
<path d="M28.5755 16.8176C29.5004 16.8176 30.2543 16.0713 30.2543 15.1524C30.2543 14.2335 29.5019 13.4872 28.5755 13.4872C27.649 13.4872 26.8967 14.2335 26.8967 15.1524C26.8967 16.0713 27.649 16.8176 28.5755 16.8176Z" fill="white"/>
</svg>
