<svg width="226" height="284" viewBox="0 0 226 284" fill="none" xmlns="http://www.w3.org/2000/svg">
<path d="M183.147 276.067H42.8531C23.7992 276.067 8.35309 260.621 8.35309 241.567V42.8208C8.35309 23.767 23.7993 8.3208 42.8531 8.3208H145.316L217.647 78.0918V241.567C217.647 260.621 202.201 276.067 183.147 276.067Z" stroke="#0A2BA3" stroke-width="15"/>
<path fill-rule="evenodd" clip-rule="evenodd" d="M47.4631 107.766C47.4631 101.032 52.9219 95.5735 59.6556 95.5735H72.0705C78.8042 95.5735 84.263 101.032 84.263 107.766V110.937H141.737V107.766C141.737 101.032 147.196 95.5735 153.929 95.5735H166.344C173.078 95.5735 178.537 101.032 178.537 107.766V120.181C178.537 126.915 173.078 132.373 166.344 132.373H165.514V191.088H166.344C173.078 191.088 178.537 196.546 178.537 203.28V215.695C178.537 222.429 173.078 227.888 166.344 227.888H153.929C147.196 227.888 141.737 222.429 141.737 215.695V214.861H84.263V215.695C84.263 222.429 78.8042 227.888 72.0705 227.888H59.6556C52.9219 227.888 47.4631 222.429 47.4631 215.695V203.28C47.4631 196.547 52.9219 191.088 59.6556 191.088H61.5899V132.373H59.6556C52.9219 132.373 47.4631 126.915 47.4631 120.181V107.766ZM84.263 205.439V203.28C84.263 196.546 78.8042 191.088 72.0705 191.088H71.0113V132.373H72.0705C78.745 132.373 84.1668 127.01 84.2617 120.358H141.738C141.833 127.01 147.255 132.373 153.929 132.373H156.093V191.088H153.929C147.196 191.088 141.737 196.547 141.737 203.28V205.439H84.263ZM56.9044 105.27H73.4289V121.795H56.9044V105.27ZM73.6871 201.319H57.1626V217.843H73.6871V201.319ZM152.437 201.319H168.961V217.843H152.437V201.319ZM168.961 105.528H152.437V122.053H168.961V105.528Z" fill="#0A2BA3"/>
</svg>
