<svg width="14.947510" height="14.947510" viewBox="0 0 14.9475 14.9475" fill="none" xmlns="http://www.w3.org/2000/svg" xmlns:xlink="http://www.w3.org/1999/xlink">
	<desc>
			Created with Pixso.
	</desc>
	<defs/>
	<path id="Vector" d="M14.7622 5.81384Q14.9475 6.63013 14.9475 7.47375Q14.9475 8.99365 14.3599 10.3832Q13.7925 11.7246 12.7585 12.7585Q11.7246 13.7924 10.3833 14.3597Q8.99365 14.9475 7.47363 14.9475Q5.95386 14.9475 4.56421 14.3597Q3.2229 13.7924 2.18896 12.7585Q1.15503 11.7246 0.587646 10.3832Q0 8.99365 0 7.47375Q0 5.95386 0.587646 4.56433Q1.15503 3.2229 2.18896 2.18896Q3.2229 1.15515 4.56421 0.587769Q5.95386 0 7.47363 0Q8.76099 0 9.96484 0.425537L9.29834 2.31116Q8.41797 2 7.47363 2Q6.35938 2 5.34351 2.42969Q4.36133 2.84509 3.60327 3.60327Q2.84521 4.36133 2.42969 5.34338Q2 6.3595 2 7.47375Q2 8.58801 2.42969 9.60413Q2.84521 10.5862 3.60327 11.3442Q4.36133 12.1024 5.34351 12.5178Q6.35938 12.9475 7.47363 12.9475Q8.58813 12.9475 9.604 12.5178Q10.5862 12.1024 11.3442 11.3442Q12.1023 10.5862 12.5178 9.60413Q12.9475 8.58801 12.9475 7.47375Q12.9475 6.85413 12.8118 6.25647L14.7622 5.81384ZM5.06055 5.63306Q5.20801 5.21375 5.49072 4.87061Q5.77344 4.52734 6.15674 4.30212Q6.54004 4.0769 6.97729 3.99707Q7.41455 3.91711 7.85278 3.99231Q8.29102 4.0675 8.67676 4.28845Q9.0625 4.50952 9.34863 4.84961Q9.63501 5.1897 9.78711 5.60742Q9.93921 6.02527 9.93872 6.46985Q9.93872 7.23376 9.48608 7.78857Q9.32275 7.98877 9.0874 8.17236Q8.97119 8.26318 8.74805 8.41321Q8.53564 8.55603 8.45337 8.62512Q8.3584 8.70508 8.30835 8.78076L6.63916 7.67896Q6.84937 7.3606 7.16724 7.09363Q7.33105 6.95605 7.63184 6.75366Q7.89185 6.57874 7.93628 6.52429L7.93726 6.52368Q7.93481 6.52795 7.93335 6.53198Q7.93872 6.51685 7.93872 6.4668Q7.93896 6.2804 7.81885 6.13782Q7.69873 5.99512 7.51465 5.9635Q7.33081 5.93201 7.16992 6.02649Q7.00903 6.12097 6.94727 6.29688L5.06055 5.63306ZM7.46875 8.99133L7.47363 8.99133L7.47363 10.9913L7.46875 10.9913L7.46875 8.99133ZM9.93945 0.437744L9.96484 0.425537C10.4929 0.612183 10.7612 1.17358 10.5745 1.70166C10.3879 2.22961 9.82642 2.4978 9.29834 2.31116L9.28613 2.28564L9.93945 0.437744ZM12.8357 6.27148L12.8118 6.25647C12.688 5.71033 13.0198 5.18384 13.5659 5.05994C14.1118 4.93604 14.6384 5.2677 14.7622 5.81384L14.7473 5.83777L12.8357 6.27148Z" fill="#212121" fill-opacity="0.570000" fill-rule="evenodd"/>
</svg>
