<svg width="48" height="48" xmlns="http://www.w3.org/2000/svg">

 <g>
  <title>Layer 1</title>
  <path id="svg_1" d="m13,13c0,-3.3 2.7,-6 6,-6l10,0c3.3,0 6,2.7 6,6l4,0c0,-5.5 -4.5,-10 -10,-10l-10,0c-5.5,0 -10,4.5 -10,10l0,11.2l4,0l0,-11.2z" fill="#0a2ba3"/>
  <path id="svg_2" d="m4.6,22l6.4,8.4l6.4,-8.4l-12.8,0z" fill="#0a2ba3"/>
  <g id="svg_3">
   <path id="svg_4" d="m35,35c0,3.3 -2.7,6 -6,6l-10,0c-3.3,0 -6,-2.7 -6,-6l-4,0c0,5.5 4.5,10 10,10l10,0c5.5,0 10,-4.5 10,-10l0,-12l-4,0l0,12z" fill="#0a2ba3"/>
   <path id="svg_5" d="m30.6,26l6.4,-8.4l6.4,8.4l-12.8,0z" fill="#0a2ba3"/>
  </g>
 </g>
</svg>