<svg width="278" height="278" viewBox="0 0 278 278" fill="none" xmlns="http://www.w3.org/2000/svg">
<path d="M110.055 8.75366H167.945V41.8944C174.683 43.8996 181.127 46.5869 187.197 49.8761L210.636 26.4369L251.571 67.3721L228.132 90.8112C231.421 96.8813 234.109 103.325 236.114 110.063H269.255V167.954H236.114C234.109 174.692 231.421 181.135 228.132 187.205L251.571 210.645L210.637 251.58L187.197 228.14C181.127 231.43 174.683 234.117 167.945 236.122V269.263H110.055V236.122C103.317 234.117 96.8728 231.43 90.8029 228.14L67.3633 251.58L26.4282 210.645L49.8677 187.205C46.5786 181.135 43.8915 174.691 41.8863 167.954H8.74535V110.063H41.8863C43.8915 103.325 46.5786 96.8811 49.8677 90.811L26.4286 67.3718L67.3637 26.4367L90.8033 49.8761C96.8732 46.5869 103.317 43.8996 110.055 41.8944V8.75366Z" stroke="#0A2BA3" stroke-width="17" stroke-linejoin="round"/>
<path d="M182.418 139.008C182.418 162.988 162.979 182.427 139 182.427C115.021 182.427 95.5818 162.988 95.5818 139.008C95.5818 115.029 115.021 95.5901 139 95.5901C162.979 95.5901 182.418 115.029 182.418 139.008Z" stroke="#0A2BA3" stroke-width="17" stroke-linejoin="round"/>
</svg>
