<svg width="44" height="44" viewBox="0 0 44 44" fill="none" xmlns="http://www.w3.org/2000/svg">
<path d="M22.4447 0.571411H22.3463C10.4416 0.571411 0.791016 10.1434 0.791016 21.9512V22.0488C0.791016 33.8565 10.4416 43.4286 22.3463 43.4286H22.4447C34.3494 43.4286 44 33.8565 44 22.0488V21.9512C44 10.1434 34.3494 0.571411 22.4447 0.571411Z" fill="#383D38"/>
<path d="M8.97469 21.268C9.03524 21.238 9.09582 21.2094 9.15486 21.1824C10.1812 20.7109 11.2212 20.2695 12.2597 19.8281C12.3157 19.8281 12.4096 19.7635 12.4625 19.7425C12.5428 19.7079 12.623 19.6749 12.7032 19.6404C12.8577 19.5743 13.0121 19.5098 13.165 19.4437C13.4738 19.3131 13.7811 19.1824 14.0899 19.0518L15.9383 18.2665C17.1705 17.744 18.4043 17.22 19.6365 16.6974C20.8688 16.1749 22.1026 15.6509 23.3348 15.1284C24.5671 14.6059 25.8008 14.0819 27.0331 13.5593C28.2653 13.0368 29.4991 12.5128 30.7313 11.9903C31.0053 11.8731 31.302 11.699 31.5957 11.6479C31.8425 11.6044 32.0832 11.5203 32.3314 11.4738C32.8022 11.3852 33.3215 11.3491 33.7726 11.5428C33.9285 11.6104 34.0723 11.705 34.1919 11.8236C34.7641 12.3852 34.6839 13.3071 34.5628 14.0969C33.7196 19.6013 32.8764 25.1073 32.0317 30.6118C31.9166 31.3671 31.7592 32.1959 31.1582 32.6734C30.6496 33.0773 29.926 33.1223 29.2977 32.9511C28.6695 32.7785 28.1154 32.4166 27.572 32.0607C25.3179 30.5803 23.0623 29.0998 20.8082 27.6193C20.2724 27.268 19.6759 26.8085 19.682 26.1704C19.685 25.786 19.9166 25.4437 20.1527 25.1389C22.1116 22.6043 24.9379 20.8626 27.0406 18.4452C27.3373 18.1043 27.5705 17.4887 27.1633 17.2921C26.921 17.1749 26.6425 17.3341 26.4215 17.4857C23.6421 19.4001 20.8643 21.316 18.0849 23.2305C17.1781 23.8551 16.2274 24.4977 15.1345 24.6509C14.1565 24.789 13.1725 24.5187 12.2264 24.2425C11.4332 24.0112 10.6414 23.774 9.85271 23.5292C9.43338 23.4001 9.00043 23.2605 8.67647 22.9677C8.35251 22.6749 8.16634 22.1824 8.36162 21.792C8.48424 21.5473 8.72191 21.3926 8.9717 21.2665L8.97469 21.268Z" fill="#FEFFFC"/>
</svg>
