<svg width="29.335938" height="33.669556" viewBox="0 0 29.3359 33.6696" fill="none" xmlns="http://www.w3.org/2000/svg" xmlns:xlink="http://www.w3.org/1999/xlink">
	<desc>
			Created with Pixso.
	</desc>
	<defs/>
	<path id="trash" d="M28.3923 29.1508Q28.3923 31.0225 27.0688 32.3461Q25.7451 33.6696 23.8735 33.6696L6.2793 33.6696Q4.40747 33.6696 3.08398 32.3461Q1.7605 31.0225 1.7605 29.1508L1.7605 11.5565Q1.7605 11.458 1.77971 11.3614Q1.79893 11.2648 1.83662 11.1738Q1.87431 11.0828 1.92903 11.0009Q1.98375 10.9191 2.05339 10.8494Q2.12303 10.7798 2.20493 10.725Q2.28682 10.6703 2.37781 10.6326Q2.46881 10.5949 2.56541 10.5757Q2.66201 10.5565 2.7605 10.5565L27.3923 10.5565Q27.4908 10.5565 27.5874 10.5757Q27.684 10.5949 27.775 10.6326Q27.866 10.6703 27.9479 10.725Q28.0298 10.7798 28.0994 10.8494Q28.1691 10.9191 28.2238 11.0009Q28.2785 11.0828 28.3162 11.1738Q28.3539 11.2648 28.3731 11.3614Q28.3923 11.458 28.3923 11.5565L28.3923 29.1508ZM26.3923 29.1508L26.3923 11.5565L27.3923 11.5565L27.3923 12.5565L2.7605 12.5565L2.7605 11.5565L3.7605 11.5565L3.7605 29.1508Q3.7605 30.1941 4.49805 30.9318Q5.23584 31.6696 6.2793 31.6696L23.8735 31.6696Q26.3923 31.6696 26.3923 29.1508ZM10.5576 25.6318L10.5576 18.5942L12.5576 18.5942L12.5576 25.6318L10.5576 25.6318ZM17.5952 25.6318L17.5952 18.5942L19.5952 18.5942L19.5952 25.6318L17.5952 25.6318ZM8.79932 6.40845Q8.7981 6.34338 8.7981 6.2782Q8.7981 3.67773 10.637 1.83887Q12.4758 0 15.0764 0Q19.47 0 20.9756 4.12573L19.0969 4.8114Q18.0708 2 15.0764 2Q13.3042 2 12.0513 3.25305Q10.7981 4.5061 10.7981 6.2782Q10.7981 6.323 10.7991 6.36755L8.79932 6.40845ZM0.81665 7.05481L9.61499 5.40515L19.8518 3.48572L28.9673 1.77649L29.3359 3.74231L20.2205 5.45142L9.9834 7.37085L1.1853 9.02051L0.81665 7.05481ZM12.5376 25.6119L12.5576 25.6318C12.5576 26.1919 12.1174 26.6318 11.5576 26.6318C10.9976 26.6318 10.5576 26.1919 10.5576 25.6318L10.5774 25.6119L12.5376 25.6119ZM10.5774 18.6143L10.5576 18.5942C10.5576 18.0342 10.9976 17.5942 11.5576 17.5942C12.1174 17.5942 12.5576 18.0342 12.5576 18.5942L12.5376 18.6143L10.5774 18.6143ZM19.5752 25.6119L19.5952 25.6318C19.5952 26.1919 19.1553 26.6318 18.5952 26.6318C18.0352 26.6318 17.5952 26.1919 17.5952 25.6318L17.6152 25.6119L19.5752 25.6119ZM17.6152 18.6143L17.5952 18.5942C17.5952 18.0342 18.0352 17.5942 18.5952 17.5942C19.1553 17.5942 19.5952 18.0342 19.5952 18.5942L19.5752 18.6143L17.6152 18.6143ZM1.20117 8.99719L1.1853 9.02051C0.634766 9.12378 0.121338 8.77234 0.0180664 8.22192C-0.0852051 7.67151 0.266357 7.15796 0.81665 7.05481L0.840088 7.0708L1.20117 8.99719Z" fill="#FF6161" fill-opacity="1.000000" fill-rule="evenodd"/>
</svg>
