<svg width="44" height="44" viewBox="0 0 44 44" fill="none" xmlns="http://www.w3.org/2000/svg">
<path d="M22.2357 0.571411H22.1373C10.2327 0.571411 0.582031 10.1434 0.582031 21.9512V22.0488C0.582031 33.8565 10.2327 43.4286 22.1373 43.4286H22.2357C34.1404 43.4286 43.791 33.8565 43.791 22.0488V21.9512C43.791 10.1434 34.1404 0.571411 22.2357 0.571411Z" fill="#383D38"/>
<path d="M26.3972 28.268C20.8672 28.268 16.3682 23.804 16.3666 18.3191C16.3682 16.9287 17.5096 15.7981 18.9083 15.7981C19.0522 15.7981 19.1944 15.8101 19.3307 15.8341C19.6304 15.8836 19.915 15.9843 20.1769 16.1359C20.2148 16.1584 20.2405 16.1945 20.2466 16.2365L20.8309 19.8896C20.8385 19.9317 20.8248 19.9752 20.7961 20.0068C20.4736 20.3611 20.0619 20.6164 19.6032 20.744L19.3822 20.8055L19.4654 21.0173C20.2193 22.9212 21.7543 24.4422 23.6754 25.1929L23.8888 25.277L23.9509 25.0578C24.0795 24.6028 24.3369 24.1944 24.6942 23.8746C24.7199 23.8506 24.7547 23.8386 24.7895 23.8386C24.7971 23.8386 24.8047 23.8386 24.8138 23.8401L28.4969 24.4197C28.5408 24.4272 28.5771 24.4512 28.5998 24.4887C28.7512 24.7485 28.8526 25.0323 28.9041 25.3295C28.9283 25.4617 28.9389 25.6013 28.9389 25.747C28.9389 27.1359 27.799 28.2665 26.3972 28.268Z" fill="#FDFDFD"/>
<path d="M36.2037 20.7965C35.9055 17.4542 34.3614 14.3536 31.8561 12.0669C29.3355 9.76656 26.0657 8.4993 22.646 8.4993C15.1404 8.4993 9.0337 14.5563 9.0337 22.0007C9.0337 24.4992 9.72853 26.9331 11.044 29.0533L8.11026 35.4947L17.5035 34.5022C19.1369 35.1658 20.8657 35.5022 22.6444 35.5022C23.1122 35.5022 23.5921 35.4781 24.0735 35.4286C24.4974 35.3836 24.9258 35.3175 25.3466 35.2334C31.632 33.9737 36.2204 28.4406 36.2567 22.0728V22.0007C36.2567 21.5953 36.2386 21.1899 36.2022 20.798L36.2037 20.7965ZM17.8653 31.6749L12.6684 32.2244L14.2201 28.8145L13.9097 28.4016C13.887 28.3716 13.8643 28.3416 13.8386 28.307C12.4913 26.4617 11.7798 24.2815 11.7798 22.0022C11.7798 16.0593 16.6543 11.2245 22.646 11.2245C28.2592 11.2245 33.0171 15.5683 33.4758 21.1134C33.5001 21.4106 33.5137 21.7095 33.5137 22.0037C33.5137 22.0878 33.5122 22.1704 33.5107 22.259C33.3956 27.2304 29.8941 31.4526 24.9954 32.5277C24.6215 32.6103 24.2385 32.6734 23.857 32.7139C23.4604 32.7589 23.0532 32.7815 22.649 32.7815C21.2094 32.7815 19.8106 32.5052 18.489 31.9586C18.3422 31.9001 18.1984 31.837 18.0636 31.7725L17.8668 31.6779L17.8653 31.6749Z" fill="#FDFDFD"/>
</svg>
